<?xml version="1.0" encoding="utf-8"?>
<!-- Generator: Adobe Illustrator 19.0.0, SVG Export Plug-In . SVG Version: 6.00 Build 0)  -->
<svg version="1.1" id="layer" xmlns="http://www.w3.org/2000/svg" xmlns:xlink="http://www.w3.org/1999/xlink" x="0px" y="0px"
	 viewBox="-153 -46 652 652" style="enable-background:new -153 -46 652 652;" xml:space="preserve">
<style type="text/css">
	.st0{clip-path:url(#SVGID_2_);fill:url(#SVGID_3_);}
	.st1{clip-path:url(#SVGID_5_);fill:url(#SVGID_6_);}
	.st2{clip-path:url(#SVGID_8_);fill:url(#SVGID_9_);}
	.st3{fill:#022169;}
	.st4{fill:none;stroke:#022169;stroke-width:3.6783;stroke-miterlimit:3.864;}
	.st5{clip-path:url(#SVGID_11_);fill:url(#SVGID_12_);}
	.st6{clip-path:url(#SVGID_14_);fill:url(#SVGID_15_);}
	.st7{clip-path:url(#SVGID_17_);fill:url(#SVGID_18_);}
	.st8{clip-path:url(#SVGID_20_);fill:url(#SVGID_21_);}
	.st9{clip-path:url(#SVGID_23_);fill:url(#SVGID_24_);}
	.st10{clip-path:url(#SVGID_26_);fill:url(#SVGID_27_);}
	.st11{clip-path:url(#SVGID_29_);fill:url(#SVGID_30_);}
	.st12{clip-path:url(#SVGID_32_);fill:url(#SVGID_33_);}
	.st13{clip-path:url(#SVGID_35_);fill:url(#SVGID_36_);}
</style>
<g>
	<defs>
		<rect id="SVGID_1_" x="-126.5" y="250.9" width="597.9" height="36.9"/>
	</defs>
	<clipPath id="SVGID_2_">
		<use xlink:href="#SVGID_1_"  style="overflow:visible;"/>
	</clipPath>
	
		<linearGradient id="SVGID_3_" gradientUnits="userSpaceOnUse" x1="-124.4666" y1="701.5851" x2="-121.8799" y2="701.5851" gradientTransform="matrix(231.156 0 0 -231.156 28644.7402 162444.9531)">
		<stop  offset="0" style="stop-color:#022169"/>
		<stop  offset="9.067069e-002" style="stop-color:#1C3878"/>
		<stop  offset="0.2856" style="stop-color:#6174A1"/>
		<stop  offset="0.5671" style="stop-color:#CDD3E0"/>
		<stop  offset="0.6925" style="stop-color:#FFFFFE"/>
		<stop  offset="0.736" style="stop-color:#E1E5ED"/>
		<stop  offset="0.8309" style="stop-color:#95A2C0"/>
		<stop  offset="0.9692" style="stop-color:#1D3979"/>
		<stop  offset="1" style="stop-color:#022169"/>
	</linearGradient>
	<rect x="-126.5" y="250.9" class="st0" width="597.9" height="36.9"/>
</g>
<g>
	<defs>
		<path id="SVGID_4_" d="M270.7,207.7v19.2L255,254.7c0,0-6.6,11.5-8.6,15.5c-2,3.9-2.2,6.9-2.2,6.9s-1.5,5.1,3.3,10.2
			c4.9,5.3,11,4.8,11,4.8h44.2c9.5,0,13.2-5.7,14.6-11.1c1.5-5.4-3.2-12.9-3.2-12.9l-23.3-41.6v-18.8H270.7z"/>
	</defs>
	<clipPath id="SVGID_5_">
		<use xlink:href="#SVGID_4_"  style="overflow:visible;"/>
	</clipPath>
	
		<radialGradient id="SVGID_6_" cx="-125.869" cy="711.9" r="2.5867" gradientTransform="matrix(31.0502 0 0 -31.0502 4189.2466 22368.9473)" gradientUnits="userSpaceOnUse">
		<stop  offset="0" style="stop-color:#EEF7FD"/>
		<stop  offset="7.953781e-002" style="stop-color:#CAE8F7"/>
		<stop  offset="0.2125" style="stop-color:#95D1ED"/>
		<stop  offset="0.3473" style="stop-color:#68BDE5"/>
		<stop  offset="0.4811" style="stop-color:#42ADDE"/>
		<stop  offset="0.6139" style="stop-color:#25A1D9"/>
		<stop  offset="0.7453" style="stop-color:#1198D5"/>
		<stop  offset="0.8747" style="stop-color:#0493D3"/>
		<stop  offset="1" style="stop-color:#0091D2"/>
	</radialGradient>
	<rect x="242.7" y="207.7" class="st1" width="76.1" height="85"/>
</g>
<g>
	<defs>
		<path id="SVGID_7_" d="M273.2,252.1c0,6.4,5.2,11.6,11.6,11.6c6.4,0,11.6-5.2,11.6-11.6c0-6.4-5.2-11.6-11.6-11.6
			C278.4,240.5,273.2,245.7,273.2,252.1"/>
	</defs>
	<clipPath id="SVGID_8_">
		<use xlink:href="#SVGID_7_"  style="overflow:visible;"/>
	</clipPath>
	
		<radialGradient id="SVGID_9_" cx="-168.2316" cy="712.5453" r="2.5867" gradientTransform="matrix(3.8928 7.3213 7.3213 -3.8928 -4272.9634 4252.6826)" gradientUnits="userSpaceOnUse">
		<stop  offset="0" style="stop-color:#FFFFFF"/>
		<stop  offset="0.1217" style="stop-color:#FFFCCF"/>
		<stop  offset="0.3977" style="stop-color:#FFF456"/>
		<stop  offset="0.4479" style="stop-color:#FFF23F"/>
		<stop  offset="0.7301" style="stop-color:#7A7100"/>
		<stop  offset="1" style="stop-color:#231B00"/>
	</radialGradient>
	<polygon class="st2" points="291.3,230.8 306.1,258.6 278.3,273.3 263.6,245.6 	"/>
</g>
<path class="st3" d="M-126,298.9h15V359h-15V298.9z M-109,314.2v12.9h5v15.5c0,11.9,3.5,17.5,10.8,17.5c3.5,0,6.6-0.9,9.7-2.3v-12.9
	c-1,0.5-2,0.8-3.3,0.8c-1.8,0-3.1-2.1-3.1-5.8v-12.7h6.4v-12.9h-6.4v-17l-14.1,6.6v10.3H-109z M-78.7,315.7
	c4.2-1.8,6.7-2.6,12.2-2.6c8.1,0,17.9,2.2,17.9,18.6V359h-13.1v-6.5h-0.1c-2,5.1-5.5,7.5-9.5,7.5c-5.4,0-10.7-3.8-10.7-13.2
	c0-13.8,8.1-16.5,15.1-16.5c2,0,4.2,0.4,5.5,0.6c-0.1-5.8-3.9-6.5-7.4-6.5c-3.4,0-6.9,1.6-9.7,3.8V315.7z M-61.5,339.3h-1.4
	c-2.9,0-6.3,0.4-6.3,5.1c0,3.1,1.1,4.3,3.3,4.3c2.9,0,4.4-4.1,4.4-8V339.3z M-44.6,359h14.1v-64.6h-14.1V359z M-26.2,359H-12v-25.8
	c0-2.6,0-6.1,2.5-6.1c2.5,0,2.5,3.5,2.5,6.1V359H7v-25.8c0-2.6,0-6.1,2.5-6.1c2.5,0,2.5,3.5,2.5,6.1V359h14.1v-26.9
	c0-8.8,0-19-10.3-19c-3.5,0-8.4,2.5-9.3,7.7H6.4c-1.1-5.3-5.2-7.7-9.1-7.7c-4.4,0-8.3,2.5-10,8.8h-0.1v-7.7h-13.3V359z M31.9,315.7
	c4.2-1.8,6.7-2.6,12.2-2.6c8.1,0,17.9,2.2,17.9,18.6V359H48.8v-6.5h-0.1c-2,5.1-5.5,7.5-9.5,7.5c-5.4,0-10.7-3.8-10.7-13.2
	c0-13.8,8.1-16.5,15.1-16.5c2,0,4.2,0.4,5.5,0.6c-0.1-5.8-3.9-6.5-7.4-6.5c-3.4,0-6.9,1.6-9.7,3.8V315.7z M49.1,339.3h-1.4
	c-2.9,0-6.3,0.4-6.3,5.1c0,3.1,1.1,4.3,3.3,4.3c2.9,0,4.4-4.1,4.4-8V339.3z M63.1,314.2v12.9h5v15.5c0,11.9,3.5,17.5,10.8,17.5
	c3.5,0,6.6-0.9,9.7-2.3v-12.9c-1,0.5-2,0.8-3.3,0.8c-1.8,0-3.1-2.1-3.1-5.8v-12.7h6.4v-12.9h-6.4v-17l-14.1,6.6v10.3H63.1z
	 M118.3,344.5c-2,1.8-4,2.7-6.6,2.7c-4.2,0-7-4.1-7-11c0-6.7,2.8-10.1,7-10.1c2.5,0,4.6,1,6.3,2.2V315c-2.9-1.3-6-1.9-10.2-1.9
	c-11.8,0-18.1,7.6-18.1,22.6c0,15.5,6.3,24.3,18.1,24.3c4.2,0,7.3-0.7,10.5-2.2V344.5z M121.5,359h14.1v-25.8c0-2.6,0-6.1,2.5-6.1
	c2.5,0,2.5,3.5,2.5,6.1V359h14.1v-31.2c0-8.7-2.7-14.7-10.2-14.7c-4,0-7.4,3-8.7,6.6h-0.1v-25.3h-14.1V359z M211.5,341.7
	c-2.7,1.5-5.4,2.3-8.1,2.3c-6.2,0-10.7-5.3-10.7-15.6c0-9.8,4.8-15.1,11.2-15.1c2.5,0,5,1,7.5,2.2v-15.8c-4-1.1-6.5-1.9-10.6-1.9
	c-12.5,0-23.4,10.1-23.4,30.2c0,21.4,10.4,31.9,23.4,31.9c3.8,0,8-1.2,10.8-2.4V341.7z M214.3,359h14.1v-25.8c0-2.6,0-6.1,2.5-6.1
	c2.5,0,2.5,3.5,2.5,6.1V359h14.1v-31.2c0-8.7-2.7-14.7-10.2-14.7c-4,0-7.4,3-8.7,6.6h-0.1v-25.3h-14.1V359z M271.4,332.3
	c0-3.4-0.3-8.9-3.5-8.9c-3.2,0-4,5.3-3.8,8.9H271.4z M264.1,341.8c0.2,5.6,3.6,6.9,7.8,6.9c3.9,0,7.3-1,9.6-2.8v11.6
	c-3.8,1.8-8.2,2.6-13.2,2.6c-11.8,0-18.1-8.8-18.1-24.3c0-15.1,6.3-22.6,18.1-22.6c11.3,0,15.3,10.9,15.3,26v2.7H264.1z M286.1,359
	h14.1v-25.8c0-2.6,0-6.1,2.5-6.1c2.5,0,2.5,3.5,2.5,6.1V359h14.1v-25.8c0-2.6,0-6.1,2.5-6.1c2.5,0,2.5,3.5,2.5,6.1V359h14.1v-26.9
	c0-8.8,0-19-10.3-19c-3.5,0-8.4,2.5-9.3,7.7h-0.1c-1.1-5.3-5.2-7.7-9.1-7.7c-4.4,0-8.3,2.5-10,8.8h-0.1v-7.7h-13.3V359z
	 M342.7,314.2h14.1V359h-14.1V314.2z M356.8,309.4h-14.1v-15h14.1V309.4z M388.4,344.5c-2,1.8-4,2.7-6.5,2.7c-4.2,0-7-4.1-7-11
	c0-6.7,2.8-10.1,7-10.1c2.5,0,4.6,1,6.3,2.2V315c-2.9-1.3-6.1-1.9-10.2-1.9c-11.8,0-18.1,7.6-18.1,22.6c0,15.5,6.3,24.3,18.1,24.3
	c4.2,0,7.3-0.7,10.5-2.2V344.5z M393.3,315.7c4.2-1.8,6.7-2.6,12.2-2.6c8.1,0,17.9,2.2,17.9,18.6V359h-13.1v-6.5h-0.1
	c-2,5.1-5.5,7.5-9.5,7.5c-5.4,0-10.7-3.8-10.7-13.2c0-13.8,8-16.5,15-16.5c2,0,4.2,0.4,5.5,0.6c-0.1-5.8-3.9-6.5-7.4-6.5
	c-3.4,0-6.9,1.6-9.7,3.8V315.7z M410.5,339.3h-1.4c-2.9,0-6.3,0.4-6.3,5.1c0,3.1,1.1,4.3,3.3,4.3c2.9,0,4.4-4.1,4.4-8V339.3z
	 M427.3,359h14.1v-64.6h-14.1V359z M445.2,357.5c4,1.6,8.1,2.6,12.2,2.6c6.7,0,16.2-3.4,16.2-16.3c0-16.9-16.3-11.5-16.3-16.2
	c0-2.8,2.5-3.1,4.9-3.1c3.2,0,6.2,1,9.2,2.6V315c-3.5-1.1-7-1.9-10.5-1.9c-6.9,0-16.4,2.2-16.4,15.2c0,17.3,16.3,12,16.3,17.5
	c0,2.2-2.8,2.9-5.1,2.9c-3.6,0-7.7-1.5-10.4-4V357.5z"/>
<path class="st4" d="M226.4,256.1c0-29.7,24.1-53.7,53.7-53.7c29.7,0,53.7,24.1,53.7,53.7c0,29.7-24.1,53.7-53.7,53.7
	C250.5,309.9,226.4,285.8,226.4,256.1z"/>
<g>
	<defs>
		<path id="SVGID_10_" d="M268.2,227.4l10.1,19.5c0,0,1.8,1.7,4.4,0.4c1.9-1,1.5-3.4,1.5-3.4l-10.1-19.4L268.2,227.4z"/>
	</defs>
	<clipPath id="SVGID_11_">
		<use xlink:href="#SVGID_10_"  style="overflow:visible;"/>
	</clipPath>
	
		<linearGradient id="SVGID_12_" gradientUnits="userSpaceOnUse" x1="-85.1588" y1="829.2297" x2="-82.5721" y2="829.2297" gradientTransform="matrix(2.5523 -1.4735 -1.4735 -2.5523 1712.569 2229.1504)">
		<stop  offset="0" style="stop-color:#240000"/>
		<stop  offset="0.454" style="stop-color:#E50012"/>
		<stop  offset="1" style="stop-color:#E50012"/>
	</linearGradient>
	<polygon class="st5" points="257.7,230.4 280.5,217.3 295,242.5 272.3,255.7 	"/>
</g>
<g>
	<defs>
		<polygon id="SVGID_13_" points="262,272.4 263.4,279 305.8,270 304.4,263.4 		"/>
	</defs>
	<clipPath id="SVGID_14_">
		<use xlink:href="#SVGID_13_"  style="overflow:visible;"/>
	</clipPath>
	
		<linearGradient id="SVGID_15_" gradientUnits="userSpaceOnUse" x1="20.6119" y1="703.6276" x2="23.1986" y2="703.6276" gradientTransform="matrix(-0.5405 -2.5431 -2.5431 0.5405 2085.1445 -53.4403)">
		<stop  offset="0" style="stop-color:#240000"/>
		<stop  offset="0.454" style="stop-color:#E50012"/>
		<stop  offset="1" style="stop-color:#E50012"/>
	</linearGradient>
	<polygon class="st6" points="263.9,287.9 258.9,264.1 303.9,254.5 309,278.3 	"/>
</g>
<g>
	<defs>
		<path id="SVGID_16_" d="M258.4,269.3l4,5.3l18.1-13.6c0,0,0.6-1.5-1.2-3.7c-1-1.2-2.8-1.6-2.8-1.6L258.4,269.3z"/>
	</defs>
	<clipPath id="SVGID_17_">
		<use xlink:href="#SVGID_16_"  style="overflow:visible;"/>
	</clipPath>
	
		<linearGradient id="SVGID_18_" gradientUnits="userSpaceOnUse" x1="-248.147" y1="746.2397" x2="-245.5603" y2="746.2397" gradientTransform="matrix(1.6486 2.3545 2.3545 -1.6486 -1080.3973 2076.4619)">
		<stop  offset="0" style="stop-color:#240000"/>
		<stop  offset="0.454" style="stop-color:#E50012"/>
		<stop  offset="1" style="stop-color:#E50012"/>
	</linearGradient>
	<polygon class="st7" points="273.6,245 290,268.3 265.9,285.2 249.5,261.9 	"/>
</g>
<g>
	<defs>
		<path id="SVGID_19_" d="M265.9,234l-13.3,35l6.2,2.5l13.3-35c0,0,0.1-1.6-3-2.6c-0.4-0.1-0.9-0.2-1.3-0.2
			C266.8,233.8,265.9,234,265.9,234"/>
	</defs>
	<clipPath id="SVGID_20_">
		<use xlink:href="#SVGID_19_"  style="overflow:visible;"/>
	</clipPath>
	
		<linearGradient id="SVGID_21_" gradientUnits="userSpaceOnUse" x1="-204.2744" y1="815.1541" x2="-201.6877" y2="815.1541" gradientTransform="matrix(2.6065 0.9487 0.9487 -2.6065 18.163 2569.9238)">
		<stop  offset="0" style="stop-color:#240000"/>
		<stop  offset="0.454" style="stop-color:#E50012"/>
		<stop  offset="1" style="stop-color:#E50012"/>
	</linearGradient>
	<polygon class="st8" points="254.9,227.5 284.3,238.2 269.9,277.8 240.5,267.1 	"/>
</g>
<g>
	<defs>
		<path id="SVGID_22_" d="M291.2,253.3c-1.4,2.5-0.1,3.9-0.1,3.9l20.2,10.3l3-5.9l-20.2-10.3C294.1,251.3,292,252,291.2,253.3"/>
	</defs>
	<clipPath id="SVGID_23_">
		<use xlink:href="#SVGID_22_"  style="overflow:visible;"/>
	</clipPath>
	
		<linearGradient id="SVGID_24_" gradientUnits="userSpaceOnUse" x1="-29.6792" y1="783.3431" x2="-27.0925" y2="783.3431" gradientTransform="matrix(1.5125 -2.6198 -2.6198 -1.5125 2397.3389 1369.6234)">
		<stop  offset="0" style="stop-color:#240000"/>
		<stop  offset="0.454" style="stop-color:#E50012"/>
		<stop  offset="1" style="stop-color:#E50012"/>
	</linearGradient>
	<polygon class="st9" points="282.8,263.5 295.9,240.7 321.3,255.4 308.2,278.2 	"/>
</g>
<g>
	<defs>
		<path id="SVGID_25_" d="M280.3,231.2c-2.3,2.3-1.4,3.7-1.4,3.7l28.1,24.6l4.3-5.1l-28.2-24.6C283.2,229.8,281.4,230.1,280.3,231.2
			"/>
	</defs>
	<clipPath id="SVGID_26_">
		<use xlink:href="#SVGID_25_"  style="overflow:visible;"/>
	</clipPath>
	
		<linearGradient id="SVGID_27_" gradientUnits="userSpaceOnUse" x1="-39.907" y1="807.0118" x2="-37.3203" y2="807.0118" gradientTransform="matrix(1.8436 -2.1972 -2.1972 -1.8436 2139.2126 1647.4436)">
		<stop  offset="0" style="stop-color:#240000"/>
		<stop  offset="0.454" style="stop-color:#E50012"/>
		<stop  offset="1" style="stop-color:#E50012"/>
	</linearGradient>
	<polygon class="st10" points="263.4,247.2 291.8,213.4 326,242.1 297.6,275.9 	"/>
</g>
<g>
	<defs>
		<path id="SVGID_28_" d="M242.8,276.6c0,6.4,5.2,11.6,11.6,11.6c6.4,0,11.6-5.2,11.6-11.6c0-6.4-5.2-11.6-11.6-11.6
			C248,265,242.8,270.2,242.8,276.6"/>
	</defs>
	<clipPath id="SVGID_29_">
		<use xlink:href="#SVGID_28_"  style="overflow:visible;"/>
	</clipPath>
	
		<radialGradient id="SVGID_30_" cx="-167.6851" cy="709.7048" r="2.5867" gradientTransform="matrix(3.8928 7.3213 7.3213 -3.8928 -4284.7295 4262.1733)" gradientUnits="userSpaceOnUse">
		<stop  offset="0" style="stop-color:#FFFFFF"/>
		<stop  offset="0.1217" style="stop-color:#FFFCCF"/>
		<stop  offset="0.3977" style="stop-color:#FFF456"/>
		<stop  offset="0.4479" style="stop-color:#FFF23F"/>
		<stop  offset="0.7301" style="stop-color:#7A7100"/>
		<stop  offset="1" style="stop-color:#231B00"/>
	</radialGradient>
	<polygon class="st11" points="260.9,255.4 275.6,283.1 247.9,297.9 233.1,270.1 	"/>
</g>
<g>
	<defs>
		<path id="SVGID_31_" d="M304.1,264c0,6.4,5.2,11.6,11.6,11.6c6.4,0,11.6-5.2,11.6-11.6c0-6.4-5.2-11.6-11.6-11.6
			C309.3,252.4,304.1,257.6,304.1,264"/>
	</defs>
	<clipPath id="SVGID_32_">
		<use xlink:href="#SVGID_31_"  style="overflow:visible;"/>
	</clipPath>
	
		<radialGradient id="SVGID_33_" cx="-166.38" cy="714.1494" r="2.5867" gradientTransform="matrix(3.8928 7.3213 7.3213 -3.8928 -4261.0195 4257.2905)" gradientUnits="userSpaceOnUse">
		<stop  offset="0" style="stop-color:#FFFFFF"/>
		<stop  offset="0.1217" style="stop-color:#FFFCCF"/>
		<stop  offset="0.3977" style="stop-color:#FFF456"/>
		<stop  offset="0.4479" style="stop-color:#FFF23F"/>
		<stop  offset="0.7301" style="stop-color:#7A7100"/>
		<stop  offset="1" style="stop-color:#231B00"/>
	</radialGradient>
	<polygon class="st12" points="322.2,242.8 337,270.5 309.2,285.2 294.5,257.5 	"/>
</g>
<g>
	<defs>
		<path id="SVGID_34_" d="M261.3,225.1c0,6.4,5.2,11.6,11.6,11.6c6.4,0,11.6-5.2,11.6-11.6c0-6.4-5.2-11.6-11.6-11.6
			C266.5,213.5,261.3,218.7,261.3,225.1"/>
	</defs>
	<clipPath id="SVGID_35_">
		<use xlink:href="#SVGID_34_"  style="overflow:visible;"/>
	</clipPath>
	
		<radialGradient id="SVGID_36_" cx="-170.4092" cy="712.7049" r="2.5867" gradientTransform="matrix(3.8928 7.3213 7.3213 -3.8928 -4277.5693 4242.2432)" gradientUnits="userSpaceOnUse">
		<stop  offset="0" style="stop-color:#FFFFFF"/>
		<stop  offset="0.1217" style="stop-color:#FFFCCF"/>
		<stop  offset="0.3977" style="stop-color:#FFF456"/>
		<stop  offset="0.4479" style="stop-color:#FFF23F"/>
		<stop  offset="0.7301" style="stop-color:#7A7100"/>
		<stop  offset="1" style="stop-color:#231B00"/>
	</radialGradient>
	<polygon class="st13" points="279.4,203.8 294.1,231.6 266.4,246.3 251.7,218.6 	"/>
</g>
</svg>
