<?xml version="1.0" encoding="UTF-8" standalone="no"?>
<!-- Created with Inkscape (http://www.inkscape.org/) -->

<svg
   xmlns:dc="http://purl.org/dc/elements/1.1/"
   xmlns:cc="http://creativecommons.org/ns#"
   xmlns:rdf="http://www.w3.org/1999/02/22-rdf-syntax-ns#"
   xmlns:svg="http://www.w3.org/2000/svg"
   xmlns="http://www.w3.org/2000/svg"
   xmlns:sodipodi="http://sodipodi.sourceforge.net/DTD/sodipodi-0.dtd"
   xmlns:inkscape="http://www.inkscape.org/namespaces/inkscape"
   width="351.86948mm"
   height="56.811939mm"
   viewBox="0 0 351.86948 56.811939"
   version="1.1"
   id="svg2976"
   inkscape:version="0.92.0 r15299"
   sodipodi:docname="univar solutions.svg">
  <defs
     id="defs2970" />
  <sodipodi:namedview
     id="base"
     pagecolor="#ffffff"
     bordercolor="#666666"
     borderopacity="1.0"
     inkscape:pageopacity="0.0"
     inkscape:pageshadow="2"
     inkscape:zoom="0.67834225"
     inkscape:cx="661.17067"
     inkscape:cy="103.58162"
     inkscape:document-units="mm"
     inkscape:current-layer="layer1"
     showgrid="false"
     fit-margin-top="0"
     fit-margin-left="0"
     fit-margin-right="0"
     fit-margin-bottom="0"
     inkscape:window-width="1280"
     inkscape:window-height="744"
     inkscape:window-x="-4"
     inkscape:window-y="-4"
     inkscape:window-maximized="1" />
  <metadata
     id="metadata2973">
    <rdf:RDF>
      <cc:Work
         rdf:about="">
        <dc:format>image/svg+xml</dc:format>
        <dc:type
           rdf:resource="http://purl.org/dc/dcmitype/StillImage" />
        <dc:title></dc:title>
      </cc:Work>
    </rdf:RDF>
  </metadata>
  <g
     inkscape:label="Layer 1"
     inkscape:groupmode="layer"
     id="layer1"
     transform="translate(162.46153,-119.42736)">
    <g
       transform="translate(-639.15886,-229.36968)"
       id="g2968">
      <path
         id="path2844"
         d="m 509.68846,390.85815 v -19.67971 c 0,-0.0106 0,-0.0238 0.003,-0.0344 -0.0159,-0.65881 0.32544,-1.29645 0.92604,-1.64041 l 11.58081,-6.65163 c 0.46567,-0.26723 0.97896,-0.30691 1.4314,-0.17198 l 0.4101,0.23548 c 0.5715,0.33073 0.92605,0.93927 0.92605,1.60073 v 12.94871 c 0,0.0106 0,0.0238 -0.003,0.0344 0.003,0.0132 0.003,0.0264 0.003,0.0397 v 6.6675 c 0,0.0635 -0.005,0.12436 -0.0106,0.18257 -0.0556,0.57679 -0.38364,1.11389 -0.9181,1.42081 l -11.57817,6.64898 c -1.23296,0.70908 -2.77019,-0.17992 -2.77019,-1.60073 z"
         inkscape:connector-curvature="0"
         style="fill:#ffb572;stroke-width:0.26458332" />
      <path
         id="path2846"
         d="m 524.96286,384.19065 v -19.67442 c 0,-0.66146 -0.3519,-1.27264 -0.92604,-1.60073 l -22.35729,-12.86933 c -1.23296,-0.70908 -2.76755,0.17992 -2.76755,1.60073 v 19.76702 c 0,0.66146 0.35455,1.27529 0.93134,1.60337 l 22.35729,12.77673 c 1.23031,0.70379 2.76225,-0.18521 2.76225,-1.60337"
         inkscape:connector-curvature="0"
         style="fill:#ff8300;stroke-width:0.26458332" />
      <path
         id="path2848"
         d="m 492.97473,363.5505 v 19.67971 c 0,0.0106 0,0.0238 -0.003,0.0344 0.0159,0.65881 -0.32544,1.29645 -0.92604,1.64041 l -11.58082,6.65163 c -0.46566,0.26723 -0.97895,0.30691 -1.43139,0.17198 l -0.41011,-0.23548 c -0.5715,-0.33073 -0.92604,-0.93927 -0.92604,-1.60073 v -12.94871 c 0,-0.0106 0,-0.0238 0.003,-0.0344 -0.003,-0.0132 -0.003,-0.0265 -0.003,-0.0397 v -6.6675 c 0,-0.0635 0.005,-0.12436 0.0106,-0.18257 0.0556,-0.57679 0.38364,-1.11389 0.9181,-1.42081 l 11.57817,-6.64898 c 1.23296,-0.70908 2.77018,0.17992 2.77018,1.60073 z"
         inkscape:connector-curvature="0"
         style="fill:#ffb572;stroke-width:0.26458332" />
      <path
         inkscape:connector-curvature="0"
         d="m 542.4915,390.18875 c -2.44474,-2.20398 -3.79412,-5.33929 -3.79412,-9.87425 v -17.15823 h 5.69119 v 17.58421 c 0,2.71198 0.71702,4.36563 1.93939,5.50863 1.26471,1.22766 3.03477,1.90764 5.0165,1.90764 1.98173,0 3.75179,-0.67733 5.0165,-1.90764 1.22238,-1.143 1.9394,-2.79665 1.9394,-5.50863 v -17.58421 h 5.69119 v 17.16088 c 0,4.53496 -1.34938,7.67027 -3.79413,9.87425 -2.27542,2.03464 -5.52185,3.05064 -8.85296,3.05064 -3.3311,-0.003 -6.57754,-1.01864 -8.85296,-3.05329"
         id="path2850"
         style="fill:#53575a;stroke-width:0.26458332" />
      <path
         inkscape:connector-curvature="0"
         d="m 569.05038,392.81606 v -20.55018 h 5.2705 v 1.65364 c 1.5584,-1.27264 3.49779,-2.07698 5.77585,-2.07698 2.82311,0 5.3975,1.27 7.0829,3.30465 1.34937,1.60867 2.10873,3.68565 2.10873,7.20196 v 10.46691 h -5.47952 v -10.89025 c 0,-2.03464 -0.46302,-3.09297 -1.22238,-3.85497 -0.71702,-0.71967 -1.81239,-1.143 -3.0771,-1.143 -2.31775,0 -4.21481,1.48166 -4.97417,2.54264 v 13.34823 h -5.48481 z"
         id="path2852"
         style="fill:#53575a;stroke-width:0.26458332" />
      <path
         inkscape:connector-curvature="0"
         d="m 599.6124,392.81606 h -5.47952 v -20.55018 h 5.47952 z m -2.74108,-31.35577 c 1.98173,0 3.58246,1.52665 3.58246,3.51632 0,1.99231 -1.60073,3.51631 -3.58246,3.51631 -1.98173,0 -3.58246,-1.52665 -3.58246,-3.51631 0,-1.98967 1.60337,-3.51632 3.58246,-3.51632"
         id="path2854"
         style="fill:#53575a;stroke-width:0.26458332" />
      <path
         inkscape:connector-curvature="0"
         d="m 613.43952,384.80713 5.60653,-12.54125 h 5.69118 l -9.40064,20.55018 h -3.79413 l -9.40064,-20.55018 h 5.69118 z"
         id="path2856"
         style="fill:#53575a;stroke-width:0.26458332" />
      <path
         inkscape:connector-curvature="0"
         d="m 640.75511,379.47048 c -1.13771,-1.52664 -2.95011,-2.54264 -5.05884,-2.54264 -3.2041,0 -5.2705,2.66964 -5.2705,5.63562 0,3.21998 2.31775,5.59329 5.3975,5.59329 2.06375,0 3.8788,-1.016 4.93184,-2.54264 z m 5.47952,13.34558 h -5.2705 v -1.65364 c -1.6854,1.44198 -3.62479,2.07698 -5.69119,2.07698 -3.03477,0 -5.90021,-1.35731 -7.7126,-3.47398 -1.60338,-1.86531 -2.61409,-4.40796 -2.61409,-7.20196 0,-6.05896 4.46882,-10.72092 10.033,-10.72092 2.31775,0 4.38415,0.762 5.98488,2.07698 v -1.65364 h 5.2705 z"
         id="path2858"
         style="fill:#53575a;stroke-width:0.26458332" />
      <path
         inkscape:connector-curvature="0"
         d="m 663.94055,377.1395 c -0.37836,-0.127 -1.18005,-0.21166 -1.98173,-0.21166 -2.40242,0 -4.29948,1.73566 -4.97417,2.96597 v 12.9249 h -5.47952 v -20.55283 h 5.2705 v 2.07698 c 1.22237,-1.52665 3.45546,-2.50032 5.94254,-2.50032 0.80169,0 1.26471,0.0847 1.85473,0.16934 z"
         id="path2860"
         style="fill:#53575a;stroke-width:0.26458332" />
      <path
         inkscape:connector-curvature="0"
         d="m 670.33023,386.58777 c 1.72773,2.24632 4.04548,4.23863 7.92427,4.23863 2.95011,0 6.06954,-2.11931 6.06954,-5.55096 0,-5.38163 -6.32354,-5.97429 -10.62302,-8.64394 -2.19075,-1.35466 -4.00579,-3.09298 -4.00579,-6.10129 0,-4.61962 3.66713,-7.79727 8.38994,-7.79727 3.79412,0 6.19654,1.78065 7.54592,2.96598 l -1.60073,1.86531 c -1.72773,-1.52664 -3.41577,-2.41564 -5.86052,-2.41564 -3.28613,0 -5.94254,2.03464 -5.94254,5.25462 0,4.49263 5.94254,5.08529 10.15999,7.7126 2.44475,1.52665 4.46882,3.72798 4.46882,7.16228 0,4.70429 -3.79413,7.9666 -8.59896,7.9666 -3.92113,0 -7.24958,-1.65365 -9.779,-5.00063 z"
         id="path2862"
         style="fill:#53575a;stroke-width:0.26458332" />
      <path
         inkscape:connector-curvature="0"
         d="m 699.50054,375.35886 c -4.34181,0 -7.50358,3.47398 -7.50358,7.79727 0,4.32329 3.16177,7.79727 7.50358,7.79727 4.34182,0 7.50359,-3.47398 7.50359,-7.79727 0,-4.32329 -3.16177,-7.79727 -7.50359,-7.79727 m 0,17.88054 c -5.73352,0 -9.906,-4.53231 -9.906,-10.08592 0,-5.55096 4.17248,-10.08592 9.906,-10.08592 5.73353,0 9.906,4.53496 9.906,10.08592 0.003,5.55361 -4.17247,10.08592 -9.906,10.08592"
         id="path2864"
         style="fill:#53575a;stroke-width:0.26458332" />
      <path
         inkscape:connector-curvature="0"
         d="m 713.83302,362.73294 h 2.40242 v 30.08577 h -2.40242 z"
         id="path2866"
         style="fill:#53575a;stroke-width:0.26458332" />
      <path
         inkscape:connector-curvature="0"
         d="m 736.76711,390.18875 c -1.34938,1.78065 -3.83646,3.05065 -6.49288,3.05065 -3.16177,0 -5.81819,-1.52665 -7.20725,-3.98198 -0.71702,-1.31233 -1.13771,-2.88131 -1.13771,-5.46629 v -10.29759 h 2.40242 v 9.91394 c 0,2.71198 0.42069,3.98198 1.09538,5.00063 1.01335,1.52664 2.74108,2.54264 4.84716,2.54264 2.61409,0 5.1435,-1.60866 6.40821,-4.02431 v -13.4329 h 2.40242 v 19.32252 h -2.31775 z"
         id="path2868"
         style="fill:#53575a;stroke-width:0.26458332" />
      <path
         inkscape:connector-curvature="0"
         d="m 756.15842,375.78219 h -6.53521 v 10.59392 c 0,1.73566 0.33867,2.58498 0.84402,3.21998 0.67469,0.84666 1.77006,1.35466 3.20411,1.35466 0.54768,0 1.34937,-0.0423 2.06639,-0.254 l 0.42069,2.20398 c -0.63236,0.21167 -1.72773,0.33867 -2.48708,0.33867 -1.77007,0 -3.83646,-0.55034 -5.14086,-2.20398 -0.84402,-1.05833 -1.30704,-2.45798 -1.30704,-4.74663 v -10.5066 h -5.39485 v -2.28865 h 5.39485 v -5.25198 h 2.40242 v 5.25463 h 6.5352 v 2.286 z"
         id="path2870"
         style="fill:#53575a;stroke-width:0.26458332" />
      <path
         inkscape:connector-curvature="0"
         d="m 761.00559,373.49354 h 2.40241 v 19.32252 h -2.40241 z m 1.18004,-8.8556 c 1.18004,0 2.15106,0.97367 2.15106,2.16165 0,1.18797 -0.96838,2.11931 -2.15106,2.11931 -1.18269,0 -2.10873,-0.93134 -2.10873,-2.11931 0,-1.18798 0.92869,-2.16165 2.10873,-2.16165"
         id="path2872"
         style="fill:#53575a;stroke-width:0.26458332" />
      <path
         inkscape:connector-curvature="0"
         d="m 777.74048,375.35886 c -4.34181,0 -7.50358,3.47398 -7.50358,7.79727 0,4.32329 3.16177,7.79727 7.50358,7.79727 4.34181,0 7.50358,-3.47398 7.50358,-7.79727 0,-4.32329 -3.16177,-7.79727 -7.50358,-7.79727 m 0,17.88054 c -5.73352,0 -9.906,-4.53231 -9.906,-10.08592 0,-5.55096 4.17248,-10.08592 9.906,-10.08592 5.73352,0 9.906,4.53496 9.906,10.08592 0,5.55361 -4.17248,10.08592 -9.906,10.08592"
         id="path2874"
         style="fill:#53575a;stroke-width:0.26458332" />
      <path
         inkscape:connector-curvature="0"
         d="m 794.39071,376.20552 c 1.56104,-2.07698 4.08781,-3.13531 6.78656,-3.13531 2.78342,0 5.2705,1.143 6.8289,3.26231 1.05304,1.397 1.64306,3.00832 1.64306,6.18596 v 10.29758 h -2.40242 v -10.1256 c 0,-2.54265 -0.42068,-3.77031 -1.09537,-4.74662 -1.09538,-1.60867 -2.90777,-2.58498 -5.0165,-2.58498 -2.78342,0 -5.18583,1.48166 -6.65956,4.02431 v 13.43025 h -2.40242 v -19.31988 h 2.31775 z"
         id="path2876"
         style="fill:#53575a;stroke-width:0.26458332" />
      <path
         inkscape:connector-curvature="0"
         d="m 814.91973,388.62242 c 1.64306,1.397 3.66713,2.33098 5.81554,2.33098 2.40242,0 4.42648,-1.35731 4.42648,-3.38931 0,-4.9583 -11.08604,-2.24632 -11.08604,-8.85561 0,-3.51631 3.28877,-5.63562 6.53521,-5.63562 2.61408,0 4.7625,0.889 6.19654,1.86531 l -1.26471,1.99231 c -1.64306,-1.05833 -2.8231,-1.56898 -4.80483,-1.56898 -2.02142,0 -4.25715,1.05834 -4.25715,3.30465 0,4.28096 11.08604,1.99231 11.08604,8.77094 0,3.60097 -3.03477,5.80495 -6.65956,5.80495 -3.2041,0 -5.77585,-1.18798 -7.46125,-2.75431 z"
         id="path2878"
         style="fill:#53575a;stroke-width:0.26458332" />
      <path
         id="path2882"
         d="m 477.70034,370.218 v 19.67442 c 0,0.66146 0.35189,1.27264 0.92604,1.60073 l 22.35729,12.86669 c 1.23296,0.70908 2.76754,-0.17992 2.76754,-1.60073 v -19.76702 c 0,-0.66146 -0.35454,-1.2753 -0.93133,-1.60338 l -22.35729,-12.77673 c -1.23031,-0.70114 -2.76225,0.18786 -2.76225,1.60602"
         inkscape:connector-curvature="0"
         style="fill:#ff8300;stroke-width:0.26458332" />
    </g>
  </g>
</svg>
